HIERARCHY
ROOT hip
{
	OFFSET 0.000000 0.000000 0.000000 
	CHANNELS 6 Xposition Yposition Zposition Xrotation Zrotation Yrotation
	JOINT abdomen
	{
		OFFSET 0.000000 3.402643 0.000000 
		CHANNELS 3 Xrotation Zrotation Yrotation
		JOINT chest
		{
			OFFSET 0.000000 8.438565 -0.680529 
			CHANNELS 3 Xrotation Zrotation Yrotation
			JOINT neck
			{
				OFFSET 0.000000 10.207942 -0.272212 
				CHANNELS 3 Xrotation Zrotation Yrotation
				JOINT head
				{
					OFFSET 0.000000 3.130431 0.000000 
					CHANNELS 3 Xrotation Zrotation Yrotation
					End Site
					{
						OFFSET 0.000000 3.130435 0.000000 
					}
				}
			}
			JOINT lCollar
			{
				OFFSET 3.470700 6.669187 -0.816635 
				CHANNELS 3 Yrotation Zrotation Xrotation
				JOINT lShldr
				{
					OFFSET 3.198488 0.000000 0.000000 
					CHANNELS 3 Zrotation Yrotation Xrotation
					JOINT lForeArm
					{
						OFFSET 10.139888 0.000000 0.000000 
						CHANNELS 3 Yrotation Zrotation Xrotation
						JOINT lHand
						{
							OFFSET 8.370511 0.000000 0.000000 
							CHANNELS 3 Zrotation Yrotation Xrotation
							End Site
							{
								OFFSET 4.083176 0.000000 0.000000 
							}
						}
					}
				}
			}
			JOINT rCollar
			{
				OFFSET -3.470700 6.669187 -0.816635 
				CHANNELS 3 Yrotation Zrotation Xrotation
				JOINT rShldr
				{
					OFFSET -3.198488 0.000000 0.000000 
					CHANNELS 3 Zrotation Yrotation Xrotation
					JOINT rForeArm
					{
						OFFSET -10.139888 0.000000 0.000000 
						CHANNELS 3 Yrotation Zrotation Xrotation
						JOINT rHand
						{
							OFFSET -8.370511 0.000000 0.000000 
							CHANNELS 3 Zrotation Yrotation Xrotation
							End Site
							{
								OFFSET -4.083176 0.000000 0.000000 
							}
						}
					}
				}
			}
		}
	}
	JOINT lThigh
	{
		OFFSET 5.308129 -1.633274 1.361059 
		CHANNELS 3 Xrotation Zrotation Yrotation
		JOINT lShin
		{
			OFFSET -2.041588 -20.007561 0.000000 
			CHANNELS 3 Xrotation Zrotation Yrotation
			JOINT lFoot
			{
				OFFSET 0.000000 -19.190928 -1.224953 
				CHANNELS 3 Xrotation Yrotation Zrotation
				End Site
				{
					OFFSET 0.000000 -2.449906 4.627600 
				}
			}
		}
	}
	JOINT rThigh
	{
		OFFSET -5.308129 -1.633274 1.361059 
		CHANNELS 3 Xrotation Zrotation Yrotation
		JOINT rShin
		{
			OFFSET 2.041588 -20.007561 0.000000 
			CHANNELS 3 Xrotation Zrotation Yrotation
			JOINT rFoot
			{
				OFFSET 0.000000 -19.190928 -1.224953 
				CHANNELS 3 Xrotation Yrotation Zrotation
				End Site
				{
					OFFSET 0.000000 -2.449906 4.627600 
				}
			}
		}
	}
}
MOTION
Frames: 19
Frame Time: 0.016667
-0.548308 47.351860 0.197712 -13.751668 -2.438823 5.757115 5.019107 -0.166015 0.146484 33.110035 3.692818 3.856009 30.561527 3.592766 -4.432251 -27.864208 -1.513619 0.478607 14.404668 7.051950 -1.852028 -18.666052 -17.810476 -82.446342 -67.650703 -29.414291 -10.930549 -24.590376 -5.347722 -3.278556 -7.534060 5.374776 8.133804 23.219469 17.409788 -78.193451 92.501274 21.935743 22.439838 -31.000862 -1.056904 -4.582985 -3.866005 17.085791 0.670841 63.915176 -11.244699 -5.641915 -11.630897 -3.827806 -1.199396 11.261141 3.961762 0.638223 30.682217 3.035769 -12.578687 -28.401999 -1.138608 2.785130 
-0.467787 47.475140 0.422927 -12.928336 -2.169084 5.110775 5.019107 -0.166015 0.146484 34.004620 3.087500 4.176482 30.852709 3.631807 -4.412755 -28.499573 -1.894485 0.400495 15.327126 7.705889 -2.142075 -18.452765 -19.838240 -81.543205 -68.099152 -29.232086 -4.740956 -17.565464 -6.559009 -4.080063 -6.882464 3.881002 7.841017 22.813206 18.087543 -78.964203 91.554825 21.958103 22.576357 -31.377415 -1.123786 -4.542110 -5.194986 16.219810 0.579491 63.902397 -11.450680 -5.262253 -11.644505 -3.854913 -1.191522 11.219286 3.475785 0.623896 29.885899 2.662856 -12.065838 -28.187126 -1.136403 2.786853 
-0.372735 47.616550 0.642505 -12.020951 -1.869313 4.464971 5.019107 -0.166015 0.146484 34.916916 2.453569 4.437883 31.015326 3.495170 -4.480989 -28.864441 -2.050713 0.468799 16.040918 8.211313 -2.403888 -18.055986 -21.689035 -79.730934 -67.745506 -28.766762 3.082445 -8.431055 -6.466789 -6.000894 -6.428573 2.334052 7.580521 22.408468 19.004496 -79.578789 90.392967 21.949127 22.982389 -31.665495 -1.052307 -4.514193 -6.462255 15.278387 0.462224 63.396614 -11.695967 -5.033229 -11.728393 -3.846889 -1.201296 11.114302 2.897940 0.579967 28.971724 2.351875 -11.482119 -27.904003 -1.164732 2.778956 
-0.277690 47.757961 0.862069 -11.100172 -1.559031 3.819601 5.019107 -0.166015 0.146484 35.813351 1.820062 4.690093 31.177488 3.368287 -4.548646 -29.219631 -2.216703 0.527705 16.759369 8.710434 -2.665242 -17.724043 -23.554333 -77.911438 -67.468933 -28.261520 10.868272 0.683638 -6.077082 -7.890304 -5.977949 0.773757 7.335354 21.988903 19.907110 -80.210526 89.231384 21.932552 23.389364 -31.952810 -0.988835 -4.481927 -7.733128 14.343693 0.337702 62.887791 -11.968119 -4.769476 -11.805191 -3.844127 -1.170422 11.024778 2.314334 0.546702 28.038496 2.033026 -10.923983 -27.630293 -1.159538 2.794491 
-0.165180 47.911331 1.069898 -10.058371 -1.228581 3.174354 5.019107 -0.166015 0.146484 36.747269 1.138464 4.864259 31.336710 3.094985 -4.713859 -29.608286 -2.148252 0.752157 17.184244 9.130412 -2.861386 -17.197216 -25.109158 -76.242386 -65.917130 -27.670385 17.846474 7.721365 -4.767977 -10.171959 -5.506204 -0.750420 7.134833 21.405779 20.853256 -80.738701 87.775330 21.905729 23.992636 -32.191719 -0.923441 -4.472751 -8.924524 13.318605 0.219668 61.754547 -12.212056 -4.722630 -12.057098 -3.858279 -1.187630 10.777665 1.620291 0.483573 26.995018 1.833110 -10.281806 -27.317890 -1.149301 2.790319 
-0.052674 48.064701 1.277723 -9.004065 -0.887806 2.529598 5.019107 -0.166015 0.146484 37.676025 0.447496 5.019760 31.486912 2.831517 -4.878660 -29.986286 -2.079782 0.967223 17.612080 9.547626 -3.058283 -16.712477 -26.685963 -74.567375 -64.473976 -26.910051 24.757265 14.698405 -3.187848 -12.273088 -5.036191 -2.267868 6.948740 20.824648 21.796883 -81.273811 86.318283 21.863699 24.613228 -32.430676 -0.852749 -4.456109 -10.111291 12.288042 0.132770 60.617435 -12.455441 -4.671873 -12.276572 -3.838572 -1.208455 10.531653 0.917359 0.431947 25.950628 1.647950 -9.641923 -27.024914 -1.149160 2.790679 
0.071537 48.209251 1.475206 -7.878994 -0.536819 1.884774 5.019107 -0.166015 0.146484 38.772945 -0.291823 5.068393 31.688745 2.548660 -5.053809 -30.648975 -1.962409 1.270124 17.831631 9.943468 -3.228821 -16.105263 -28.045307 -73.796059 -62.447735 -26.331057 28.903591 18.221239 -2.166229 -13.751977 -4.417555 -3.773820 6.816857 20.093550 22.703339 -81.796120 84.581856 21.791271 25.365099 -32.685768 -0.847876 -4.467949 -11.198866 11.238002 0.023792 58.950188 -12.602112 -4.875220 -12.634678 -3.845723 -1.204049 10.184981 0.195196 0.372826 24.940077 1.522394 -8.955079 -26.692707 -1.152479 2.800203 
0.195750 48.353802 1.672694 -6.761588 -0.175741 1.230463 5.019107 -0.166015 0.146484 39.869129 -1.031077 5.088646 31.882538 2.265932 -5.228621 -31.310694 -1.854770 1.573022 18.063980 10.347298 -3.400641 -15.512867 -29.406839 -73.045769 -60.478287 -25.629147 33.006676 21.719633 -1.061107 -15.169466 -3.804932 -5.283483 6.698848 19.349468 23.600012 -82.338432 82.845245 21.706343 26.120220 -32.951103 -0.841029 -4.493423 -12.276694 10.168921 -0.055716 57.291264 -12.730217 -5.070581 -12.974916 -3.838472 -1.203023 9.809193 -0.527306 0.306255 23.921722 1.385908 -8.296836 -26.390303 -1.145672 2.782152 
0.329138 48.463387 1.867028 -5.594422 0.136713 0.537131 5.019107 -0.166015 0.146484 41.177834 -1.779930 5.139087 32.045200 2.032050 -5.374286 -32.282612 -1.805771 1.778000 18.078222 10.775094 -3.539921 -14.929933 -30.704206 -72.875053 -58.382996 -25.069422 35.019596 23.194216 -0.827736 -15.959414 -3.160273 -6.842759 6.614551 18.512045 24.443014 -82.851608 80.856041 21.595306 26.957262 -33.297382 -0.952145 -4.526841 -13.273991 9.194236 -0.166770 55.307896 -12.757650 -5.502255 -13.421848 -3.856253 -1.186484 9.261251 -1.249116 0.214139 23.120501 1.313611 -7.515069 -26.165674 -1.143800 2.783555 
0.462524 48.572971 2.061362 -4.425002 0.458983 -0.146480 5.019107 -0.166015 0.146484 42.485191 -2.538468 5.170880 32.209045 1.798267 -5.520062 -33.253887 -1.756770 1.973525 18.104382 11.202263 -3.677405 -14.341153 -31.994772 -72.729324 -56.303963 -24.457954 37.019321 24.667299 -0.571563 -16.732300 -2.517329 -8.405206 6.554067 17.658300 25.282539 -83.372780 78.878334 21.449789 27.769821 -33.642872 -1.071798 -4.553504 -14.273600 8.210746 -0.239987 53.323719 -12.767056 -5.940599 -13.872504 -3.846661 -1.188413 8.703851 -1.971216 0.158022 22.329868 1.268674 -6.785063 -25.960466 -1.152350 2.789528 
0.597749 48.629745 2.266783 -3.272385 0.703044 -0.869195 5.019107 -0.166015 0.146484 44.067238 -3.267704 5.213291 32.180317 1.428318 -5.753568 -34.321060 -1.493183 2.051357 17.921375 11.572385 -3.764344 -13.730578 -33.286316 -72.872871 -54.303986 -23.916719 37.884251 25.059881 -0.751521 -17.032118 -1.942962 -10.056512 6.518731 16.785465 26.140532 -83.918732 76.735237 21.274460 28.593649 -34.025368 -1.227451 -4.591597 -15.231561 7.381397 -0.346583 51.364178 -12.650135 -6.474957 -14.343537 -3.835699 -1.179331 7.975426 -2.567383 0.087971 21.902451 1.181196 -6.013979 -25.882469 -1.165275 2.780883 
0.732973 48.686512 2.472203 -2.125925 0.946900 -1.591902 5.019107 -0.166015 0.146484 45.659992 -3.997032 5.227311 32.144833 1.058648 -5.987287 -35.387302 -1.229627 2.119491 17.747288 11.945350 -3.840333 -13.098954 -34.563637 -73.036308 -52.315720 -23.351770 38.725372 25.444492 -0.934778 -17.325449 -1.376279 -11.710614 6.507751 15.899386 26.996067 -84.481262 74.604637 21.061581 29.400072 -34.398521 -1.374830 -4.633561 -16.197823 6.551132 -0.448650 49.417160 -12.573321 -7.022250 -14.820952 -3.833381 -1.175285 7.230940 -3.161313 0.015039 21.474291 1.099735 -5.231344 -25.823908 -1.170041 2.777813 
0.869151 48.693314 2.702355 -0.991164 1.063548 -2.363599 5.019107 -0.166015 0.146484 47.571583 -4.697521 5.192738 31.807060 0.621297 -6.240501 -36.547504 -0.927117 2.090044 17.367331 12.184213 -3.822753 -12.395294 -35.711830 -73.411118 -50.509808 -22.829786 39.076275 25.406708 -1.348860 -17.327335 -0.775165 -13.500834 6.544500 15.057987 27.802786 -85.066246 72.465820 20.841232 30.029074 -34.752834 -1.507645 -4.671863 -17.134508 5.965172 -0.519491 47.750069 -12.405128 -7.306783 -15.292531 -3.887039 -1.201017 6.334053 -3.582234 -0.015631 21.472044 0.936969 -4.489686 -25.960539 -1.159118 2.784930 
1.005328 48.700108 2.932516 0.149886 1.189634 -3.125542 5.019107 -0.166015 0.146484 49.477005 -5.398339 5.129727 31.481852 0.194063 -6.484404 -37.708153 -0.634363 2.041107 16.977457 12.423382 -3.805133 -11.668907 -36.840385 -73.814651 -48.706223 -22.300735 39.415943 25.379993 -1.768789 -17.332413 -0.169974 -15.281396 6.598964 14.202775 28.607405 -85.667397 70.334091 20.607834 30.646587 -35.097225 -1.640177 -4.708980 -18.068653 5.378597 -0.580647 46.100376 -12.248756 -7.628392 -15.744874 -3.897563 -1.203606 5.429539 -3.994060 -0.048585 21.458588 0.780322 -3.747460 -26.087219 -1.150998 2.801651 
1.138030 48.663742 3.200245 1.355775 1.159369 -3.936321 5.019107 -0.166015 0.146484 51.599293 -6.090384 4.979106 30.740940 -0.320040 -6.738394 -38.874477 -0.214720 1.943346 16.307224 12.681611 -3.714591 -10.956636 -37.729183 -74.403008 -47.114594 -21.806490 39.439743 25.165888 -2.352231 -17.099728 0.599065 -17.183645 6.757928 13.441936 29.229210 -86.369164 68.312851 20.348120 30.996061 -35.292580 -1.657242 -4.738555 -19.120348 5.087511 -0.639158 44.973793 -12.160127 -7.512379 -16.192762 -3.883039 -1.191955 4.342004 -4.138855 -0.103908 21.800554 0.491186 -3.051335 -26.409544 -1.157380 2.797124 
1.270729 48.627373 3.467980 2.570462 1.148376 -4.756663 5.019107 -0.166015 0.146484 53.717796 -6.782902 4.808786 30.003119 -0.823939 -6.973476 -40.042538 0.195211 1.845725 15.628383 12.935571 -3.634443 -10.229220 -38.605240 -75.002914 -45.518787 -21.334948 39.460167 24.953196 -2.922785 -16.859198 1.392352 -19.081930 6.936079 12.659021 29.849806 -87.091438 66.297768 20.085337 31.340059 -35.487038 -1.688119 -4.770347 -20.148855 4.783121 -0.692355 43.845764 -12.075574 -7.399436 -16.634279 -3.890801 -1.192082 3.276021 -4.270856 -0.154332 22.137894 0.214644 -2.345252 -26.731926 -1.167891 2.789615 
1.392301 48.557610 3.787103 4.000057 0.933001 -5.615919 5.019107 -0.166015 0.146484 55.875889 -7.526704 4.412703 28.670143 -1.385598 -7.160350 -40.990181 0.761294 1.914283 14.829109 13.260488 -3.525304 -9.387759 -39.236858 -75.898743 -43.994671 -20.844049 39.194496 24.821659 -3.463071 -16.575657 2.518284 -21.018881 7.315748 11.885332 30.250687 -88.008041 64.352539 19.807650 31.492294 -35.497906 -1.546599 -4.823318 -21.378956 4.851449 -0.720974 43.371334 -12.123449 -6.819723 -17.223650 -3.909919 -1.193585 2.088521 -4.119010 -0.202522 22.539608 -0.088584 -1.886527 -27.161381 -1.143481 2.805869 
1.513869 48.487854 4.106238 5.433630 0.737425 -6.494606 5.019107 -0.166015 0.146484 58.047867 -8.261390 3.995357 27.331993 -1.956512 -7.338354 -41.935795 1.346850 1.983021 14.025951 13.584569 -3.405539 -8.533125 -39.861561 -76.814346 -42.471191 -20.378916 38.922218 24.682030 -3.993669 -16.285700 3.684152 -22.943220 7.747249 11.092732 30.647909 -88.950516 62.415298 19.525084 31.632713 -35.518353 -1.411586 -4.883780 -22.590067 4.910140 -0.759849 42.897930 -12.163779 -6.234785 -17.802406 -3.924374 -1.203446 0.896610 -3.956886 -0.243712 22.945248 -0.410490 -1.394451 -27.581333 -1.165600 2.801760 
1.619114 48.390942 4.496011 7.222904 0.329271 -7.392680 5.019107 -0.166015 0.146484 60.019760 -9.095630 3.390806 25.350063 -2.411682 -7.350359 -42.559288 1.990682 2.227932 13.189686 14.191976 -3.326790 -7.589926 -40.270924 -78.010185 -40.886108 -19.846888 38.391632 24.631950 -4.380024 -16.088720 5.037795 -24.909401 8.379999 10.341797 30.947266 -89.994972 60.430038 19.214132 31.675285 -35.443604 -1.259120 -5.001194 -24.042910 5.319748 -0.795894 42.979084 -12.270053 -5.545305 -18.723780 -3.881317 -1.172849 -0.107824 -3.572993 -0.257304 23.026688 -0.566610 -1.332789 -27.883944 -1.174222 2.807096 
